<svg xmlns="http://www.w3.org/2000/svg" viewBox="0 0 100 100" role="img" aria-labelledby="title desc">
  <title id="title">Xiaoguang Teacher Samoyed Mascot</title>
  <desc id="desc">A fluffy cartoon Samoyed wearing round glasses and a blue teacher collar, holding a carrot in its mouth.</desc>
  <defs>
    <radialGradient id="face" cx="50%" cy="32%" r="62%">
      <stop offset="0%" stop-color="#ffffff"/>
      <stop offset="72%" stop-color="#fbfcff"/>
      <stop offset="100%" stop-color="#edf2f7"/>
    </radialGradient>
    <linearGradient id="carrot" x1="16" x2="84" y1="52" y2="62" gradientUnits="userSpaceOnUse">
      <stop offset="0%" stop-color="#ffb15f"/>
      <stop offset="45%" stop-color="#ff8f32"/>
      <stop offset="100%" stop-color="#ef7421"/>
    </linearGradient>
    <linearGradient id="collar" x1="28" x2="72" y1="78" y2="93" gradientUnits="userSpaceOnUse">
      <stop offset="0%" stop-color="#67d7d2"/>
      <stop offset="100%" stop-color="#7eaefe"/>
    </linearGradient>
  </defs>

  <ellipse cx="50" cy="86" rx="27" ry="8" fill="#1f2937" opacity=".08"/>

  <path d="M25 27C18 12 22 9 31 21c2 3 2 7 0 11Z" fill="#f4f7fb" stroke="#dfe6ee" stroke-width=".9"/>
  <path d="M75 27C82 12 78 9 69 21c-2 3-2 7 0 11Z" fill="#f4f7fb" stroke="#dfe6ee" stroke-width=".9"/>
  <path d="M27 24c-3-5-3-8 1-7 2 1 4 4 4 7Z" fill="#ffdce5" opacity=".55"/>
  <path d="M73 24c3-5 3-8-1-7-2 1-4 4-4 7Z" fill="#ffdce5" opacity=".55"/>

  <path d="M30 78c6 11 34 11 40 0l4 13c-12 8-36 8-48 0Z" fill="url(#collar)"/>
  <circle cx="50" cy="84" r="5" fill="#ffd757" stroke="#f6a629" stroke-width=".8"/>
  <path d="M50 76v3M50 89v3M42 84h3M55 84h3M44.3 78.3l2.1 2.1M53.6 87.6l2.1 2.1M55.7 78.3l-2.1 2.1M46.4 87.6l-2.1 2.1" stroke="#f6a629" stroke-width="1.1" stroke-linecap="round"/>

  <circle cx="27" cy="43" r="18" fill="#ffffff" opacity=".88"/>
  <circle cx="73" cy="43" r="18" fill="#ffffff" opacity=".88"/>
  <circle cx="34" cy="28" r="15" fill="#ffffff" opacity=".82"/>
  <circle cx="66" cy="28" r="15" fill="#ffffff" opacity=".82"/>
  <ellipse cx="50" cy="44" rx="32" ry="29" fill="url(#face)" stroke="#e5ebf2" stroke-width=".6"/>
  <circle cx="31" cy="56" r="14" fill="#ffffff" opacity=".72"/>
  <circle cx="69" cy="56" r="14" fill="#ffffff" opacity=".72"/>

  <circle cx="36" cy="40" r="8.5" fill="none" stroke="#506171" stroke-width="1.9"/>
  <circle cx="64" cy="40" r="8.5" fill="none" stroke="#506171" stroke-width="1.9"/>
  <path d="M44.5 40c3.5-1.8 7.5-1.8 11 0" fill="none" stroke="#506171" stroke-width="1.6" stroke-linecap="round"/>
  <path d="M26.8 37c2.6-2.3 5.7-3.4 9.2-3.3M64 33.7c3.5-.1 6.6 1 9.2 3.3" fill="none" stroke="#d8e1ea" stroke-width="1" stroke-linecap="round"/>

  <circle cx="36" cy="41" r="4.7" fill="#1b2430"/>
  <circle cx="64" cy="41" r="4.7" fill="#1b2430"/>
  <circle cx="34.5" cy="39.1" r="1.9" fill="#ffffff"/>
  <circle cx="62.5" cy="39.1" r="1.9" fill="#ffffff"/>
  <circle cx="38" cy="43.2" r=".9" fill="#ffffff" opacity=".45"/>
  <circle cx="66" cy="43.2" r=".9" fill="#ffffff" opacity=".45"/>

  <path d="M18 58c-5-5-5-11 .4-16M20 58c-1-7 1-13 6-18M22 58c4-5 8-9 13-12" fill="none" stroke="#54a844" stroke-width="2.4" stroke-linecap="round"/>
  <path d="M18 56c20-6 43-6 64-2 3 .6 3.6 6.6.5 7.5-21 5.8-44 6-65.2.5-3.6-.9-3-5.1.7-6Z" fill="url(#carrot)" stroke="#e17325" stroke-width=".7"/>
  <path d="M31 55.6c1.3 1.2 1.6 2.9.8 4.7M48 54.5c1.4 1.5 1.6 3.3.5 5.2M66 55c1.4 1.2 1.8 2.9 1 4.7" fill="none" stroke="#c95e1b" stroke-width="1" stroke-linecap="round" opacity=".45"/>

  <ellipse cx="50" cy="50" rx="5.4" ry="4" fill="#20242b"/>
  <ellipse cx="48" cy="49" rx="2" ry="1.2" fill="#515761" transform="rotate(-14 48 49)"/>
  <path d="M45 54c3 2 7 2 10 0" fill="none" stroke="#20242b" stroke-width="1.1" stroke-linecap="round" opacity=".55"/>
  <ellipse cx="29" cy="50" rx="6.5" ry="3.5" fill="#ffc5d0" opacity=".34"/>
  <ellipse cx="71" cy="50" rx="6.5" ry="3.5" fill="#ffc5d0" opacity=".34"/>
</svg>
